<svg xmlns="http://www.w3.org/2000/svg" width="1200" height="675" viewBox="0 0 1200 675" role="img" aria-labelledby="title"><title id="title">Investment review stages under changing financing costs</title><rect x="0" y="0" width="1200" height="675" rx="0" fill="#e1d9ed"/><circle cx="1050" cy="100" r="60" fill="#e8bd72"/><path d="M80 600L1120 600" stroke="#352b49" stroke-width="3" fill="none"/><path d="M140 350L1060 350" stroke="#352b49" stroke-width="8" fill="none"/><path d="M280 250L365 350L280 450L195 350Z" fill="#b8a0d2" stroke="#352b49" stroke-width="6"/><path d="M280 460L280 520" stroke="#352b49" stroke-width="5" fill="none"/><rect x="185" y="520" width="190" height="45" rx="5" fill="#352b49"/><path d="M600 250L685 350L600 450L515 350Z" fill="#e8bd72" stroke="#352b49" stroke-width="6"/><path d="M600 460L600 520" stroke="#352b49" stroke-width="5" fill="none"/><rect x="505" y="520" width="190" height="45" rx="5" fill="#352b49"/><path d="M920 250L1005 350L920 450L835 350Z" fill="#b8a0d2" stroke="#352b49" stroke-width="6"/><path d="M920 460L920 520" stroke="#352b49" stroke-width="5" fill="none"/><rect x="825" y="520" width="190" height="45" rx="5" fill="#352b49"/><path d="M1030 325L1060 350L1030 375" fill="none" stroke="#352b49" stroke-width="8"/></svg>
