<svg xmlns="http://www.w3.org/2000/svg" width="1200" height="675" viewBox="0 0 1200 675" role="img" aria-labelledby="title"><title id="title">Trade barriers and the IMF growth outlook</title><rect x="0" y="0" width="1200" height="675" rx="0" fill="#e1d9ed"/><circle cx="1050" cy="100" r="77" fill="#e8bd72"/><path d="M80 600L1120 600" stroke="#352b49" stroke-width="3" fill="none"/><rect x="150" y="250" width="250" height="290" rx="8" fill="#352b49"/><rect x="175" y="285" width="200" height="115" rx="8" fill="#b8a0d2"/><rect x="250" y="425" width="80" height="115" rx="8" fill="#e8bd72"/><rect x="505" y="310" width="30" height="230" rx="8" fill="#352b49"/><rect x="520" y="300" width="490" height="30" rx="2" fill="#e8bd72"/><rect x="540" y="300" width="25" height="30" rx="0" fill="#b8a0d2"/><rect x="600" y="300" width="25" height="30" rx="0" fill="#b8a0d2"/><rect x="660" y="300" width="25" height="30" rx="0" fill="#b8a0d2"/><rect x="720" y="300" width="25" height="30" rx="0" fill="#b8a0d2"/><rect x="780" y="300" width="25" height="30" rx="0" fill="#b8a0d2"/><rect x="840" y="300" width="25" height="30" rx="0" fill="#b8a0d2"/><rect x="900" y="300" width="25" height="30" rx="0" fill="#b8a0d2"/><rect x="960" y="300" width="25" height="30" rx="0" fill="#b8a0d2"/><rect x="715" y="395" width="310" height="110" rx="8" fill="#b8a0d2"/><rect x="650" y="435" width="70" height="70" rx="8" fill="#352b49"/><circle cx="710" cy="525" r="30" fill="#352b49"/><circle cx="965" cy="525" r="30" fill="#352b49"/></svg>
