<svg xmlns="http://www.w3.org/2000/svg" width="1200" height="675" viewBox="0 0 1200 675" role="img" aria-labelledby="title"><title id="title">Computing investment within the IMF global outlook</title><rect x="0" y="0" width="1200" height="675" rx="0" fill="#eadbe2"/><circle cx="1050" cy="100" r="86" fill="#96b8d0"/><path d="M80 600L1120 600" stroke="#403346" stroke-width="3" fill="none"/><rect x="150" y="145" width="195" height="410" rx="8" fill="#403346"/><rect x="170" y="170" width="155" height="54" rx="8" fill="#c38da0"/><circle cx="300" cy="197" r="7" fill="#96b8d0"/><rect x="170" y="242" width="155" height="54" rx="8" fill="#c38da0"/><circle cx="300" cy="269" r="7" fill="#96b8d0"/><rect x="170" y="314" width="155" height="54" rx="8" fill="#c38da0"/><circle cx="300" cy="341" r="7" fill="#96b8d0"/><rect x="170" y="386" width="155" height="54" rx="8" fill="#c38da0"/><circle cx="300" cy="413" r="7" fill="#96b8d0"/><rect x="170" y="458" width="155" height="54" rx="8" fill="#c38da0"/><circle cx="300" cy="485" r="7" fill="#96b8d0"/><rect x="390" y="145" width="195" height="410" rx="8" fill="#403346"/><rect x="410" y="170" width="155" height="54" rx="8" fill="#c38da0"/><circle cx="540" cy="197" r="7" fill="#96b8d0"/><rect x="410" y="242" width="155" height="54" rx="8" fill="#c38da0"/><circle cx="540" cy="269" r="7" fill="#96b8d0"/><rect x="410" y="314" width="155" height="54" rx="8" fill="#c38da0"/><circle cx="540" cy="341" r="7" fill="#96b8d0"/><rect x="410" y="386" width="155" height="54" rx="8" fill="#c38da0"/><circle cx="540" cy="413" r="7" fill="#96b8d0"/><rect x="410" y="458" width="155" height="54" rx="8" fill="#c38da0"/><circle cx="540" cy="485" r="7" fill="#96b8d0"/><rect x="630" y="145" width="195" height="410" rx="8" fill="#403346"/><rect x="650" y="170" width="155" height="54" rx="8" fill="#c38da0"/><circle cx="780" cy="197" r="7" fill="#96b8d0"/><rect x="650" y="242" width="155" height="54" rx="8" fill="#c38da0"/><circle cx="780" cy="269" r="7" fill="#96b8d0"/><rect x="650" y="314" width="155" height="54" rx="8" fill="#c38da0"/><circle cx="780" cy="341" r="7" fill="#96b8d0"/><rect x="650" y="386" width="155" height="54" rx="8" fill="#c38da0"/><circle cx="780" cy="413" r="7" fill="#96b8d0"/><rect x="650" y="458" width="155" height="54" rx="8" fill="#c38da0"/><circle cx="780" cy="485" r="7" fill="#96b8d0"/><rect x="870" y="145" width="195" height="410" rx="8" fill="#403346"/><rect x="890" y="170" width="155" height="54" rx="8" fill="#c38da0"/><circle cx="1020" cy="197" r="7" fill="#96b8d0"/><rect x="890" y="242" width="155" height="54" rx="8" fill="#c38da0"/><circle cx="1020" cy="269" r="7" fill="#96b8d0"/><rect x="890" y="314" width="155" height="54" rx="8" fill="#c38da0"/><circle cx="1020" cy="341" r="7" fill="#96b8d0"/><rect x="890" y="386" width="155" height="54" rx="8" fill="#c38da0"/><circle cx="1020" cy="413" r="7" fill="#96b8d0"/><rect x="890" y="458" width="155" height="54" rx="8" fill="#c38da0"/><circle cx="1020" cy="485" r="7" fill="#96b8d0"/></svg>
