<svg xmlns="http://www.w3.org/2000/svg" width="1200" height="675" viewBox="0 0 1200 675" role="img" aria-labelledby="title"><title id="title">Electronic notarial documents and recipient acceptance</title><rect x="0" y="0" width="1200" height="675" rx="0" fill="#d1e7e4"/><circle cx="1050" cy="100" r="73" fill="#e6b574"/><path d="M80 600L1120 600" stroke="#183e48" stroke-width="3" fill="none"/><rect x="200" y="280" width="800" height="290" rx="14" fill="#183e48"/><rect x="340" y="115" width="520" height="355" rx="12" fill="#70b7b0"/><rect x="395" y="175" width="330" height="12" rx="2" fill="#d1e7e4"/><rect x="395" y="225" width="295" height="12" rx="2" fill="#d1e7e4"/><rect x="395" y="275" width="260" height="12" rx="2" fill="#d1e7e4"/><rect x="395" y="325" width="225" height="12" rx="2" fill="#d1e7e4"/><path d="M200 300L600 480L1000 300V570H200Z" fill="#e6b574"/><path d="M200 570L490 430M1000 570L710 430" fill="none" stroke="#183e48" stroke-width="6"/><circle cx="850" cy="230" r="75" fill="#183e48"/><path d="M810 230L840 260L893 198" fill="none" stroke="#d1e7e4" stroke-width="12"/></svg>
