<svg xmlns="http://www.w3.org/2000/svg" width="1200" height="675" viewBox="0 0 1200 675" role="img" aria-labelledby="title"><title id="title">Energy measurement in vehicle charging</title><rect x="0" y="0" width="1200" height="675" rx="0" fill="#e1d9ed"/><circle cx="1050" cy="100" r="62" fill="#e8bd72"/><path d="M80 600L1120 600" stroke="#352b49" stroke-width="3" fill="none"/><rect x="175" y="190" width="405" height="330" rx="22" fill="#352b49"/><rect x="215" y="230" width="325" height="125" rx="10" fill="#e1d9ed"/><rect x="245" y="260" width="42" height="65" rx="5" fill="#b8a0d2"/><rect x="315" y="260" width="42" height="65" rx="5" fill="#b8a0d2"/><rect x="385" y="260" width="42" height="65" rx="5" fill="#b8a0d2"/><rect x="455" y="260" width="42" height="65" rx="5" fill="#b8a0d2"/><circle cx="380" cy="440" r="43" fill="#e8bd72"/><path d="M580 405H690V480H825V390" fill="none" stroke="#b8a0d2" stroke-width="18"/><rect x="730" y="215" width="215" height="175" rx="15" fill="#352b49"/><rect x="945" y="265" width="25" height="70" rx="3" fill="#e8bd72"/><path d="M835 235L780 310H825L800 370L890 290H845Z" fill="#e8bd72"/></svg>
