<svg xmlns="http://www.w3.org/2000/svg" width="1200" height="675" viewBox="0 0 1200 675" role="img" aria-labelledby="title"><title id="title">Allocation of corporate clothing to confirmed requests</title><rect x="0" y="0" width="1200" height="675" rx="0" fill="#e1d9ed"/><circle cx="1050" cy="100" r="78" fill="#e8bd72"/><path d="M80 600L1120 600" stroke="#352b49" stroke-width="3" fill="none"/><rect x="130" y="190" width="535" height="350" rx="10" fill="#352b49"/><rect x="155" y="215" width="220" height="125" rx="3" fill="#e1d9ed"/><rect x="180" y="250" width="170" height="22" rx="5" fill="#b8a0d2"/><path d="M240 250L240 270" stroke="#352b49" stroke-width="2" fill="none"/><rect x="180" y="273" width="170" height="22" rx="5" fill="#e8bd72"/><path d="M240 273L240 293" stroke="#352b49" stroke-width="2" fill="none"/><rect x="180" y="296" width="170" height="22" rx="5" fill="#b8a0d2"/><path d="M240 296L240 316" stroke="#352b49" stroke-width="2" fill="none"/><rect x="155" y="375" width="220" height="125" rx="3" fill="#e1d9ed"/><rect x="180" y="410" width="170" height="22" rx="5" fill="#b8a0d2"/><path d="M240 410L240 430" stroke="#352b49" stroke-width="2" fill="none"/><rect x="180" y="433" width="170" height="22" rx="5" fill="#e8bd72"/><path d="M240 433L240 453" stroke="#352b49" stroke-width="2" fill="none"/><rect x="180" y="456" width="170" height="22" rx="5" fill="#b8a0d2"/><path d="M240 456L240 476" stroke="#352b49" stroke-width="2" fill="none"/><rect x="415" y="215" width="220" height="125" rx="3" fill="#e1d9ed"/><rect x="440" y="250" width="170" height="22" rx="5" fill="#b8a0d2"/><path d="M500 250L500 270" stroke="#352b49" stroke-width="2" fill="none"/><rect x="440" y="273" width="170" height="22" rx="5" fill="#e8bd72"/><path d="M500 273L500 293" stroke="#352b49" stroke-width="2" fill="none"/><rect x="440" y="296" width="170" height="22" rx="5" fill="#b8a0d2"/><path d="M500 296L500 316" stroke="#352b49" stroke-width="2" fill="none"/><rect x="415" y="375" width="220" height="125" rx="3" fill="#e1d9ed"/><rect x="440" y="410" width="170" height="22" rx="5" fill="#b8a0d2"/><path d="M500 410L500 430" stroke="#352b49" stroke-width="2" fill="none"/><rect x="440" y="433" width="170" height="22" rx="5" fill="#e8bd72"/><path d="M500 433L500 453" stroke="#352b49" stroke-width="2" fill="none"/><rect x="440" y="456" width="170" height="22" rx="5" fill="#b8a0d2"/><path d="M500 456L500 476" stroke="#352b49" stroke-width="2" fill="none"/><rect x="790" y="380" width="250" height="170" rx="3" fill="#b8a0d2"/><path d="M790 380L745 315H890L915 380L950 315H1085L1040 380" fill="#e8bd72" stroke="#352b49" stroke-width="5"/><rect x="835" y="415" width="155" height="55" rx="3" fill="#e1d9ed"/><path d="M865 442L960 442" stroke="#352b49" stroke-width="5" fill="none"/><path d="M730 555L1100 555" stroke="#352b49" stroke-width="8" fill="none"/></svg>
