<svg xmlns="http://www.w3.org/2000/svg" width="1200" height="675" viewBox="0 0 1200 675" role="img" aria-labelledby="title"><title id="title">Industrial activity and the global growth outlook</title><rect x="0" y="0" width="1200" height="675" rx="0" fill="#eadbe2"/><circle cx="1050" cy="100" r="65" fill="#96b8d0"/><path d="M80 600L1120 600" stroke="#403346" stroke-width="3" fill="none"/><rect x="150" y="310" width="900" height="245" rx="8" fill="#403346"/><path d="M150 310L360 180V310L570 180V310L780 180V310Z" fill="#c38da0"/><rect x="870" y="140" width="65" height="170" rx="8" fill="#96b8d0"/><rect x="190" y="360" width="60" height="70" rx="8" fill="#eadbe2"/><rect x="295" y="360" width="60" height="70" rx="8" fill="#eadbe2"/><rect x="400" y="360" width="60" height="70" rx="8" fill="#eadbe2"/><rect x="505" y="360" width="60" height="70" rx="8" fill="#eadbe2"/><rect x="610" y="360" width="60" height="70" rx="8" fill="#eadbe2"/><rect x="715" y="360" width="60" height="70" rx="8" fill="#eadbe2"/><rect x="820" y="360" width="60" height="70" rx="8" fill="#eadbe2"/><rect x="925" y="360" width="60" height="70" rx="8" fill="#eadbe2"/></svg>
